<?xml version="1.0" encoding="UTF-8" standalone="no"?>
<svg
   xmlns:dc="http://purl.org/dc/elements/1.1/"
   xmlns:cc="http://creativecommons.org/ns#"
   xmlns:rdf="http://www.w3.org/1999/02/22-rdf-syntax-ns#"
   xmlns:svg="http://www.w3.org/2000/svg"
   xmlns="http://www.w3.org/2000/svg"
   version="1.1"
   id="svg10"
   width="1076.8"
   height="480"
   viewBox="0 0 1076.8 480">
  <metadata
     id="metadata16">
    <rdf:RDF>
      <cc:Work
         rdf:about="">
        <dc:format>image/svg+xml</dc:format>
        <dc:type
           rdf:resource="http://purl.org/dc/dcmitype/StillImage" />
        <dc:title></dc:title>
      </cc:Work>
    </rdf:RDF>
  </metadata>
  <defs
     id="defs14" />
  <path
     style="fill:#ea1f27;stroke-width:0.32"
     d="m 514.55501,341.84 c -0.003,-0.132 3.33024,-10.20595 7.40662,-22.38656 l 7.41162,-22.14655 23.55337,-0.10601 23.55338,-0.10601 3.2432,-0.85359 c 8.62931,-2.27117 15.50726,-6.28504 21.48598,-12.5389 6.38391,-6.67768 10.37965,-14.83748 11.73479,-23.96393 0.44016,-2.96435 0.49712,-15.28324 0.50576,-109.37952 0.005,-58.32141 0.13152,-105.82293 0.28035,-105.55893 0.20886,0.370464 97.78454,293.45376 98.73315,296.56 l 0.21991,0.72 h -99.06157 c -54.48387,0 -99.06381,-0.108 -99.06656,-0.24 z"
     id="path13" />
  <path
     style="fill:#161517;stroke-width:0.32"
     d="m 19.68985,479.00371 c -2.793635,-0.40691 -5.638032,-1.4384 -7.750792,-2.81075 C 9.2791146,474.46515 6.1555251,470.97843 4.5856515,467.98464 0.65414061,460.48714 0.32749629,456.6567 0.32316451,418 L 0.32,389.76 h 6.2103859 6.2103861 l 0.146792,30.64 c 0.160874,33.57942 0.116041,32.7887 2.099442,37.02714 2.288004,4.88934 6.119587,7.12576 11.703758,6.83123 4.329689,-0.22839 7.29666,-2.05735 9.295722,-5.73027 1.898864,-3.48887 1.87152,-2.98058 2.008061,-37.3281 l 0.124986,-31.44 H 44.499766 50.88 l -0.0066,25.04 c -0.01072,40.62538 -0.523344,46.81434 -4.463149,53.88486 -2.261869,4.05927 -6.280297,7.67204 -10.25024,9.21549 -3.490102,1.35693 -11.188724,1.87267 -16.47015,1.10336 z M 300.48,478.86563 c -10.25529,-2.18653 -18.19841,-10.49718 -22.04196,-23.06179 -2.10088,-6.86784 -2.73519,-11.89443 -2.74134,-21.72384 -0.01,-15.45622 2.21943,-24.71242 8.11268,-33.68733 5.4837,-8.35123 12.537,-12.23267 22.22898,-12.23267 9.32287,0 16.3713,3.51242 21.97697,10.95171 4.55798,6.0489 7.45456,14.30864 8.67187,24.72829 0.56502,4.83619 0.47053,16.4991 -0.17242,21.28 -1.65532,12.30931 -5.61296,21.28147 -12.03872,27.29245 -3.8359,3.58829 -7.36514,5.44861 -12.22257,6.44275 -3.01891,0.61786 -8.90013,0.62307 -11.77349,0.0106 z m 9.96629,-15.17763 c 6.63231,-2.06109 11.27403,-9.2408 12.93531,-20.008 0.65869,-4.26928 0.75507,-15.31139 0.16864,-19.32154 C 321.5439,410.63856 315.54534,403.2 306.48777,403.2 c -4.43703,0 -7.50958,1.44022 -10.91136,5.11453 -4.56327,4.92889 -6.69754,12.9144 -6.71525,25.12547 -0.0125,8.62691 0.83895,14.17072 2.97028,19.33923 3.70104,8.97514 11.02532,13.26733 18.61485,10.90877 z M 578.56,478.8985 c -13.66467,-2.88589 -22.52227,-14.64759 -25.43821,-33.7785 -0.72825,-4.77814 -0.97494,-14.05571 -0.50688,-19.06275 1.27255,-13.61207 5.32538,-23.51613 12.4961,-30.53725 5.43347,-5.32013 10.61936,-7.36304 18.67715,-7.35757 4.23478,0.003 6.87408,0.38864 10.12877,1.48055 8.00803,2.68659 13.4727,9.51347 16.19993,20.23804 0.41972,1.65056 0.76314,3.2432 0.76314,3.5392 0,0.4305 -1.20058,0.84548 -6,2.07392 -3.3,0.84464 -6.11002,1.556 -6.24451,1.5808 -0.1345,0.0246 -0.67447,-1.22185 -1.19997,-2.77027 -1.64093,-4.83507 -4.5263,-8.35945 -8.24573,-10.07184 -2.41725,-1.11289 -6.74035,-1.36829 -9.54355,-0.56381 -7.76998,2.22989 -12.5863,9.9882 -13.91261,22.41098 -0.47472,4.4464 -0.20006,13.97613 0.52106,18.08 2.24509,12.77642 8.67485,20.16 17.55574,20.16 4.42778,0 9.70208,-2.35382 13.86957,-6.18973 l 1.36,-1.25177 V 451.15923 445.44 h -7.36 -7.36 v -7.36 -7.36 h 13.76 13.76 v 17.59904 17.59904 l -2.26134,2.38061 c -4.01552,4.22729 -11.42253,8.61206 -17.12644,10.1384 -3.25068,0.86989 -10.77484,1.11977 -13.89222,0.46141 z m 61.76,0.003 c -11.12275,-2.35021 -17.5369,-10.85914 -19.66496,-26.08736 -0.25725,-1.84084 -0.42269,-3.392 -0.36768,-3.44701 0.0915,-0.0915 11.46384,-1.68599 12.02525,-1.68599 0.13427,0 0.41734,0.9 0.62902,2 1.3713,7.12544 4.11687,11.75629 8.06119,13.59652 5.22422,2.43734 12.32992,1.07209 15.38742,-2.95652 3.57805,-4.71446 3.72054,-10.98739 0.33184,-14.61017 -1.80941,-1.93443 -4.03728,-3.03274 -11.60208,-5.71965 -12.24234,-4.34832 -16.55434,-7.61456 -20.00208,-15.15117 -1.81965,-3.9776 -2.21805,-6.13069 -2.22771,-12.03901 -0.0102,-6.28598 0.37885,-8.1302 2.75827,-13.07267 1.27987,-2.65853 2.0209,-3.73875 3.75261,-5.47046 4.05245,-4.05248 8.27744,-5.75507 14.91891,-6.01203 6.82067,-0.26388 11.49683,0.8238 15.60291,3.62937 5.69735,3.8928 9.18554,10.97066 10.02109,20.33363 l 0.21843,2.44784 -2.68121,0.18602 c -1.47466,0.1023 -4.37322,0.27498 -6.44122,0.38371 l -3.76,0.19773 v -0.76435 c 0,-0.42039 -0.22282,-1.61975 -0.49514,-2.66525 -1.76371,-6.77139 -4.87875,-9.30906 -11.34486,-9.24202 -3.91952,0.0406 -6.20768,0.8657 -8.3545,3.01252 -2.35596,2.35596 -2.92867,5.94963 -1.45308,9.1183 1.37856,2.96032 4.59654,4.95923 12.2744,7.62448 11.69689,4.06038 15.99184,6.7512 19.64352,12.30685 2.55302,3.88413 3.64563,7.53545 4.10774,13.72726 0.96323,12.9056 -3.628,23.60496 -12.02195,28.01584 -3.7552,1.97331 -6.28621,2.52995 -12.11613,2.66474 -3.5359,0.0817 -5.76352,-0.0176 -7.2,-0.32115 z m -576,-45.16247 v -44.02208 l 15.28,0.12035 c 14.489283,0.11415 15.409395,0.15629 17.780464,0.81424 4.903886,1.36084 8.611826,4.05533 11.671766,8.48167 5.46716,7.90854 7.87915,17.20214 8.28112,31.90793 0.36161,13.2289 -1.06491,22.71338 -4.66442,31.01248 -3.93644,9.07594 -10.09845,14.20861 -18.45309,15.37063 -1.387658,0.19302 -8.289104,0.33689 -16.158995,0.33689 L 64.32,477.76 v -44.02211 z m 29.650211,28.5408 c 5.328243,-1.69769 8.158749,-6.29325 9.597439,-15.58211 0.71132,-4.59264 0.82348,-19.9481 0.17863,-24.45658 -0.9187,-6.4231 -2.59968,-10.69315 -5.340846,-13.56697 C 95.176838,405.2895 92.077248,404.49834 82,404.48688 l -4.88,-0.007 v 29.3167 29.31674 l 7.6,-0.15446 c 5.829731,-0.1185 7.984384,-0.27696 9.250211,-0.68029 z M 122.24,477.40422 c 0,-0.19568 5.472,-19.9208 12.16,-43.8336 6.688,-23.9128 12.16,-43.5527 12.16,-43.64422 0,-0.0915 3.13854,-0.1664 6.97454,-0.1664 h 6.97454 l 12.44184,43.28 c 6.843,23.804 12.50525,43.604 12.58276,44 l 0.14093,0.72 h -6.87112 -6.87111 l -2.71197,-10 -2.71197,-10 -12.59445,-0.0838 c -6.92695,-0.0461 -12.70109,0.0259 -12.83142,0.16 -0.13034,0.13408 -1.33095,4.41978 -2.66805,9.52378 -1.33709,5.104 -2.50905,9.532 -2.60436,9.84 -0.15781,0.50998 -0.77161,0.56 -6.87172,0.56 -4.70135,0 -6.69844,-0.10608 -6.69844,-0.35578 z M 162.12138,442.32 c -0.089,-0.308 -1.99386,-7.472 -4.2331,-15.92 -2.23924,-8.448 -4.16674,-15.47139 -4.28334,-15.60752 -0.16874,-0.19702 -8.64494,31.04704 -8.64494,31.86608 0,0.12179 3.8977,0.22144 8.66156,0.22144 8.0974,0 8.65103,-0.0365 8.49982,-0.56 z M 214.08,433.76 v -44 h 6.23724 6.23725 l 0.0828,17.36 0.0828,17.36 12.72,0.0837 12.72,0.0837 V 407.20368 389.76 h 6.4 6.4 v 44 44 h -6.4 -6.4 v -19.2 -19.2 h -12.8 -12.8 v 19.2 19.2 h -6.24 -6.24 z m 133.44,0.32 V 390.4 h 6.4 6.4 v 36.32 36.32 h 16 16 v 7.36 7.36 h -22.4 -22.4 z m 54.08,-0.34211 v -44.02208 l 15.28,0.12035 c 14.40598,0.1135 15.42038,0.15939 17.73411,0.8024 2.93498,0.81565 4.28839,1.47974 6.78515,3.32931 5.54199,4.10544 10.24909,13.46547 12.0057,23.87331 1.31389,7.78464 1.57066,19.01908 0.63811,27.91882 -1.21165,11.56346 -6.0327,22.59981 -11.81651,27.05034 -1.03357,0.79532 -3.07338,2.01484 -4.5329,2.71004 -4.31494,2.05533 -6.14294,2.23962 -22.21558,2.23962 H 401.6 Z m 27.19914,28.97107 c 3.0542,-0.39629 5.27904,-1.48749 7.1831,-3.52307 1.81376,-1.93907 2.8328,-4.07354 3.83907,-8.04128 1.19431,-4.70912 1.56384,-8.76733 1.56855,-17.22461 0.004,-8.22842 -0.36266,-12.46979 -1.43719,-16.6 -1.50966,-5.80256 -4.64925,-10.11696 -8.37709,-11.51171 -2.47472,-0.92592 -7.03068,-1.37927 -12.69558,-1.2633 l -4.64,0.095 -0.0826,28.8 c -0.0454,15.84 -0.0141,28.98 0.07,29.2 0.18893,0.49546 10.89418,0.54611 14.57175,0.069 z M 465.28,433.76 v -44 h 6.4 6.4 v 44 44 h -6.4 -6.4 z m 25.28,0 v -44 l 6.16,0.006 6.16,0.006 12.96,29.3617 12.96,29.36169 0.0817,-29.36797 0.0817,-29.36793 h 5.91833 5.91834 v 44.00662 44.00663 l -6.43709,-0.0866 -6.43705,-0.0866 -12.68295,-28.55776 c -6.97558,-15.70675 -12.79091,-28.55875 -12.92291,-28.56 -0.132,0 -0.24,12.88576 -0.24,28.63776 v 28.64 h -5.76 -5.76 v -44 z m 216.96,0.0343 V 389.76 h 15.21261 c 19.43939,0 22.52925,0.33562 26.17331,2.84282 3.44208,2.36819 6.61261,7.1928 7.95526,12.10544 0.96823,3.54275 0.97415,10.70044 0.0118,14.21766 -1.2174,4.44909 -3.72236,8.62976 -6.47398,10.80477 l -1.49725,1.18352 1.91703,1.06195 c 2.88275,1.59693 5.73798,4.67491 7.24268,7.80774 2.1304,4.43559 2.41876,5.96276 2.39728,12.6961 -0.0202,6.33763 -0.3543,8.30787 -2.17145,12.80669 -1.90647,4.71997 -5.23184,8.70333 -8.63162,10.33961 -3.74973,1.80474 -4.55411,1.87287 -24.13558,2.04452 l -18,0.15779 V 433.7943 Z m 34.48234,28.30282 c 1.97884,-0.868 3.37465,-2.34931 4.52531,-4.80253 0.75897,-1.61814 0.83177,-2.12723 0.82595,-5.77459 -0.008,-4.89408 -0.67296,-6.95082 -2.99946,-9.27466 -2.41068,-2.40793 -3.56521,-2.62844 -14.67414,-2.80262 l -9.36,-0.14675 v 11.91072 11.91069 l 10,-0.14116 c 9.58122,-0.13523 10.07046,-0.17203 11.68234,-0.8791 z m -2.83002,-37.95853 c 3.55091,-1.05453 5.76442,-4.30758 6.04093,-8.87801 0.2767,-4.57322 -1.34432,-8.41818 -4.15315,-9.85114 -1.7592,-0.89747 -6.73805,-1.29773 -14.6601,-1.17853 l -5.92,0.0891 -0.0845,10.16 -0.0845,10.16 h 8.58643 c 6.86368,0 8.92515,-0.10061 10.27488,-0.50141 z M 771.84,433.76 v -44 h 23.36 23.36 v 7.35718 7.35722 l -17.04,0.0828 -17.04,0.0828 v 9.76 9.76 l 15.92,0.083 15.92,0.083 v 7.35402 7.35402 l -15.92,0.083 -15.92,0.083 v 11.84 11.84 l 17.68,0.0827 17.68,0.0827 v 7.35731 7.35728 h -24 -24 z m 59.2,-0.0221 v -44.02208 l 17.36,0.13088 c 18.90218,0.14246 19.99171,0.23699 23.92,2.07523 2.6383,1.23459 5.63773,4.43651 7.2735,7.76455 3.30154,6.71699 4.09812,16.48828 1.98055,24.29536 -1.92944,7.11356 -6.54717,12.1728 -12.93405,14.17075 -1.232,0.38537 -2.27658,0.71929 -2.32131,0.74201 -0.0447,0.0227 1.11075,1.25271 2.56768,2.73332 3.10736,3.15782 4.63587,5.39856 7.40278,10.85203 1.94736,3.83824 11.39085,24.62582 11.39085,25.0743 0,0.11949 -3.41466,0.17869 -7.58813,0.13149 l -7.58809,-0.0858 -5.49892,-11.52 c -9.44259,-19.78192 -11.19222,-22.68077 -14.58937,-24.17226 -1.42317,-0.6248 -2.26083,-0.74784 -5.21549,-0.76605 l -3.52,-0.0218 -0.0826,18.32 -0.0826,18.32 H 837.27738 831.04 v -44.02204 z m 26.88,-6.8545 c 2.552,-0.16451 5.19021,-0.45817 5.86266,-0.65257 1.69548,-0.49018 3.55318,-2.27194 4.6078,-4.41952 0.83933,-1.70912 0.88954,-2.05517 0.88954,-6.13136 0,-3.85616 -0.0812,-4.49959 -0.75626,-5.99264 -0.89132,-1.97146 -2.95225,-3.98522 -4.71065,-4.60282 -0.95383,-0.33501 -3.50749,-0.44064 -10.69309,-0.44233 l -9.44,-0.003 -0.0843,10.87788 c -0.0464,5.98282 -0.015,11.05882 0.07,11.28 0.18909,0.49274 7.27821,0.5353 14.2544,0.0856 z m 37.12,6.87655 v -44 h 6.4 6.4 v 17.44 17.44 h 12.64 12.64 v -17.44 -17.44 h 6.4 6.4 v 44 44 h -6.4 -6.4 v -19.2 -19.2 h -12.64 -12.64 v 19.2 19.2 h -6.4 -6.4 z m 69.33514,2.48 c 6.39321,-22.836 11.928,-42.636 12.29952,-44 l 0.67545,-2.48 h 7.00496 c 3.85271,0 7.00493,0.0825 7.00493,0.18333 0,0.21872 24.5228,85.66454 24.9507,86.93667 l 0.296,0.88 h -6.9741 -6.9741 l -2.72324,-10 -2.72323,-10 h -12.76249 -12.76253 l -2.46531,9.28 c -1.35594,5.104 -2.54826,9.604 -2.6496,10 -0.18388,0.71837 -0.19968,0.72 -7.00263,0.72 h -6.81833 z m 28.58486,6.46909 c 0,-0.23485 -7.9496,-29.80983 -8.36774,-31.1305 -0.18484,-0.58381 -0.38093,-1.01581 -0.43578,-0.96 -0.0837,0.0852 -7.68592,28.71645 -8.33238,31.38144 l -0.21348,0.88 h 8.67469 c 4.77107,0 8.67469,-0.0769 8.67469,-0.17094 z m 30.4,-8.94906 v -44.04419 l 15.28,0.12035 c 14.4893,0.11414 15.4094,0.15629 17.7805,0.81424 4.8925,1.35766 8.6199,4.06141 11.6418,8.4447 4.0851,5.92554 6.5121,13.04452 7.836,22.9849 0.5553,4.16976 0.5513,20.0239 -0.01,24 -1.3276,9.47018 -3.9998,17.12205 -7.8768,22.5552 -2.6754,3.74918 -6.8226,6.68227 -11.4933,8.12854 -2.6,0.80506 -2.6145,0.8058 -17.8821,0.92308 l -15.28,0.11737 z m 27.3501,28.94502 c 2.9563,-0.42723 5.1168,-1.4727 6.9828,-3.379 1.8497,-1.88967 2.861,-3.93306 3.8986,-7.87741 1.3045,-4.95895 1.5926,-8.11885 1.5983,-17.52861 0.01,-14.32874 -1.4693,-20.76307 -5.8163,-25.32182 -3.1482,-3.3016 -6.3241,-4.10125 -16.3335,-4.11264 l -4.88,-0.006 v 29.28 29.28 l 6.16,-0.006 c 3.388,-0.004 7.1635,-0.15136 8.3901,-0.32864 z"
     id="path9" />
  <path
     style="fill:#1a3c70;stroke-width:0.32"
     d="m 461.76,341.59059 c -6.32704,-0.79085 -11.24838,-2.10672 -16.88803,-4.51555 -20.56826,-8.78525 -34.78,-27.58141 -37.66234,-49.81143 -0.4319,-3.33111 -0.48963,-17.86731 -0.48963,-123.28 V 44.48 h 40.63779 40.63779 l 0.0822,-22 0.0822,-22 h 43.36 c 47.69594,0 45.14995,-0.0964933 51.4183,1.9487648 C 600.10755,8.0307904 612.40435,23.804882 613.34979,41.44 l 0.17155,3.2 -41.54416,124.86985 c -22.84928,68.67842 -41.58211,124.83189 -41.62851,124.78549 -0.0464,-0.0464 0.19258,-1.44582 0.53101,-3.10985 0.33846,-1.66402 0.76499,-4.8824 0.94784,-7.15196 0.22189,-2.75387 0.33248,-43.28198 0.33248,-121.84 V 44.48 h -21.92 -21.92 v 126.4 126.4 h 20.48 c 11.264,0 20.48,0.11699 20.48,0.25997 0,0.82815 -2.17648,6.48759 -3.65347,9.50003 -2.99933,6.11731 -6.24058,10.6856 -11.2057,15.79344 -3.90803,4.02035 -6.66557,6.3183 -10.95219,9.12669 -12.06714,7.90589 -27.32346,11.42854 -41.70864,9.63046 z"
     id="path11" />
</svg>
